<svg xmlns="http://www.w3.org/2000/svg" width="400" height="620" viewBox="0 0 400 620" role="img" aria-labelledby="title desc">
<!-- Generated by scripts/build.mjs — do not edit, change palette/*.json instead -->
<title id="title">Lava Dark palette</title>
<desc id="desc">Primary: Lava, #E86B3F; Background: Pomice, #0F0E0D; Foreground: Ossidiana, #F5EFE8; Card: Marmo caldo, #181513; Secondary: Cenere chiara, #28221E; Accent: Terracotta tenue, #3A2016; Muted text: Cenere, #A99D94; Border: Pietra, #3A302A; Destructive: Rosso pompeiano, #E05B52; Highlight: Bronzo, #E0AA50</desc>
<rect x="1" y="1" width="398" height="618" rx="16" fill="#0F0E0D" stroke="#3A302A"/>
<g font-family="Arial, sans-serif" fill="#F5EFE8">
<text x="24" y="40" font-size="22" font-weight="700">Lava Dark</text>
<rect x="24" y="68" width="36" height="36" rx="8" fill="#E86B3F" stroke="#A99D94"/>
<text x="76" y="82" font-size="14" font-weight="600">Lava</text>
<text x="76" y="100" font-size="12" fill="#A99D94">Primary</text>
<text x="300" y="92" font-family="monospace" font-size="14">#E86B3F</text>
<rect x="24" y="122" width="36" height="36" rx="8" fill="#0F0E0D" stroke="#A99D94"/>
<text x="76" y="136" font-size="14" font-weight="600">Pomice</text>
<text x="76" y="154" font-size="12" fill="#A99D94">Background</text>
<text x="300" y="146" font-family="monospace" font-size="14">#0F0E0D</text>
<rect x="24" y="176" width="36" height="36" rx="8" fill="#F5EFE8" stroke="#A99D94"/>
<text x="76" y="190" font-size="14" font-weight="600">Ossidiana</text>
<text x="76" y="208" font-size="12" fill="#A99D94">Foreground</text>
<text x="300" y="200" font-family="monospace" font-size="14">#F5EFE8</text>
<rect x="24" y="230" width="36" height="36" rx="8" fill="#181513" stroke="#A99D94"/>
<text x="76" y="244" font-size="14" font-weight="600">Marmo caldo</text>
<text x="76" y="262" font-size="12" fill="#A99D94">Card</text>
<text x="300" y="254" font-family="monospace" font-size="14">#181513</text>
<rect x="24" y="284" width="36" height="36" rx="8" fill="#28221E" stroke="#A99D94"/>
<text x="76" y="298" font-size="14" font-weight="600">Cenere chiara</text>
<text x="76" y="316" font-size="12" fill="#A99D94">Secondary</text>
<text x="300" y="308" font-family="monospace" font-size="14">#28221E</text>
<rect x="24" y="338" width="36" height="36" rx="8" fill="#3A2016" stroke="#A99D94"/>
<text x="76" y="352" font-size="14" font-weight="600">Terracotta tenue</text>
<text x="76" y="370" font-size="12" fill="#A99D94">Accent</text>
<text x="300" y="362" font-family="monospace" font-size="14">#3A2016</text>
<rect x="24" y="392" width="36" height="36" rx="8" fill="#A99D94" stroke="#A99D94"/>
<text x="76" y="406" font-size="14" font-weight="600">Cenere</text>
<text x="76" y="424" font-size="12" fill="#A99D94">Muted text</text>
<text x="300" y="416" font-family="monospace" font-size="14">#A99D94</text>
<rect x="24" y="446" width="36" height="36" rx="8" fill="#3A302A" stroke="#A99D94"/>
<text x="76" y="460" font-size="14" font-weight="600">Pietra</text>
<text x="76" y="478" font-size="12" fill="#A99D94">Border</text>
<text x="300" y="470" font-family="monospace" font-size="14">#3A302A</text>
<rect x="24" y="500" width="36" height="36" rx="8" fill="#E05B52" stroke="#A99D94"/>
<text x="76" y="514" font-size="14" font-weight="600">Rosso pompeiano</text>
<text x="76" y="532" font-size="12" fill="#A99D94">Destructive</text>
<text x="300" y="524" font-family="monospace" font-size="14">#E05B52</text>
<rect x="24" y="554" width="36" height="36" rx="8" fill="#E0AA50" stroke="#A99D94"/>
<text x="76" y="568" font-size="14" font-weight="600">Bronzo</text>
<text x="76" y="586" font-size="12" fill="#A99D94">Highlight</text>
<text x="300" y="578" font-family="monospace" font-size="14">#E0AA50</text>
</g>
</svg>
